<svg width="17" height="17" viewBox="0 0 17 17" fill="none" xmlns="http://www.w3.org/2000/svg">
<path d="M7.03949 1.20717C7.619 0.2187 9.04799 0.218699 9.62751 1.20717L11.2463 3.9684C11.4578 4.32913 11.8103 4.58521 12.2187 4.67487L15.345 5.36121C16.4642 5.60691 16.9058 6.96595 16.1448 7.82256L14.0189 10.2154C13.7412 10.528 13.6066 10.9424 13.6475 11.3585L13.9609 14.5439C14.0731 15.6843 12.917 16.5242 11.8671 16.0651L8.93445 14.7828C8.55133 14.6153 8.11567 14.6152 7.73254 14.7828L4.79986 16.0651C3.75001 16.5242 2.59394 15.6843 2.70611 14.5439L3.01945 11.3585C3.06039 10.9424 2.92576 10.528 2.64804 10.2154L0.522208 7.82256C-0.238806 6.96595 0.202773 5.60691 1.32195 5.36121L4.44828 4.67487C4.85671 4.58521 5.20916 4.32913 5.42065 3.9684L7.03949 1.20717Z" fill="#FFCE22"/>
</svg>
